<svg width="60" height="60" viewBox="0 0 60 60" fill="none" xmlns="http://www.w3.org/2000/svg">
<rect x="2" y="2" width="56" height="56" rx="14" stroke="rgb(39 39 42)" stroke-width="4"/>
<path d="M16.77 40C16.198 40 15.756 39.8527 15.444 39.558C15.1493 39.246 15.002 38.804 15.002 38.232V23.438C15.002 22.866 15.1493 22.4327 15.444 22.138C15.756 21.826 16.198 21.67 16.77 21.67H26.052C26.4853 21.67 26.8147 21.7827 27.04 22.008C27.2827 22.2333 27.404 22.554 27.404 22.97C27.404 23.4033 27.2827 23.7413 27.04 23.984C26.8147 24.2093 26.4853 24.322 26.052 24.322H18.2V29.366H25.48C25.9307 29.366 26.2687 29.4787 26.494 29.704C26.7193 29.9293 26.832 30.2587 26.832 30.692C26.832 31.1253 26.7193 31.4547 26.494 31.68C26.2687 31.9053 25.9307 32.018 25.48 32.018H18.2V37.348H26.052C26.4853 37.348 26.8147 37.4607 27.04 37.686C27.2827 37.9113 27.404 38.2407 27.404 38.674C27.404 39.1073 27.2827 39.4367 27.04 39.662C26.8147 39.8873 26.4853 40 26.052 40H16.77ZM31.0127 40.208C30.5794 40.208 30.2241 40.0953 29.9467 39.87C29.6694 39.6273 29.5047 39.3327 29.4527 38.986C29.4181 38.622 29.5394 38.258 29.8167 37.894L35.7707 29.964V31.394L30.1027 23.802C29.8254 23.4207 29.7041 23.0567 29.7387 22.71C29.7734 22.346 29.9294 22.0513 30.2067 21.826C30.4841 21.5833 30.8307 21.462 31.2467 21.462C31.5934 21.462 31.8967 21.5487 32.1567 21.722C32.4341 21.878 32.7114 22.1467 32.9887 22.528L37.6687 28.976H36.6027L41.2567 22.528C41.5341 22.1467 41.8027 21.878 42.0627 21.722C42.3401 21.5487 42.6607 21.462 43.0247 21.462C43.4581 21.462 43.8134 21.5747 44.0907 21.8C44.3681 22.0253 44.5241 22.32 44.5587 22.684C44.5934 23.0307 44.4634 23.4033 44.1687 23.802L38.5007 31.394V29.964L44.4287 37.894C44.7061 38.258 44.8274 38.622 44.7927 38.986C44.7581 39.3327 44.6021 39.6273 44.3247 39.87C44.0474 40.0953 43.6834 40.208 43.2327 40.208C42.9034 40.208 42.6001 40.1213 42.3227 39.948C42.0627 39.7747 41.7854 39.4973 41.4907 39.116L36.5507 32.356H37.6947L32.7807 39.116C32.5034 39.4973 32.2261 39.7747 31.9487 39.948C31.6714 40.1213 31.3594 40.208 31.0127 40.208Z" fill="rgb(39 39 42)"/>
</svg>
